<?xml version="1.0" standalone="no"?><!DOCTYPE svg PUBLIC "-//W3C//DTD SVG 1.1//EN" "http://www.w3.org/Graphics/SVG/1.1/DTD/svg11.dtd"><svg t="1649670535794" class="icon" viewBox="0 0 1024 1024" version="1.1" xmlns="http://www.w3.org/2000/svg" p-id="18586" xmlns:xlink="http://www.w3.org/1999/xlink" width="200" height="200"><defs><style type="text/css"></style></defs><path d="M952 542.4c-70.4-80-174.4-102.4-305.6-72-6.4-14.4-14.4-28.8-25.6-40 16-12.8 32-20.8 48-24 17.6-3.2 20.8-4.8 28.8-6.4 83.2-20.8 136-57.6 147.2-136 14.4-88-97.6-168-235.2-208C459.2 11.2 329.6 32 291.2 147.2c-33.6 104 0 208 94.4 304-9.6 16-16 32-19.2 51.2-22.4-8-38.4-19.2-51.2-32-72-80-142.4-123.2-217.6-80-70.4 41.6-80 176-48 312 36.8 152 118.4 254.4 235.2 228.8 105.6-22.4 179.2-110.4 220.8-254.4 12.8 0 24 0 36.8-3.2 6.4 28.8 6.4 52.8 0 72l-3.2 11.2c-8 22.4-6.4 20.8-9.6 28.8-22.4 75.2-14.4 136 46.4 185.6 68.8 56 192-3.2 294.4-104 113.6-108.8 161.6-233.6 81.6-324.8z m-396.8 48c-27.2 16-60.8 16-88 0-41.6-24-56-78.4-32-120 24-41.6 78.4-56 120-32 27.2 16 44.8 44.8 44.8 76.8 0 30.4-17.6 59.2-44.8 75.2zM512 361.6c-83.2 0-152 67.2-152 152s67.2 152 152 152c83.2 0 152-67.2 152-152s-68.8-152-152-152z m43.2 228.8c-27.2 16-60.8 16-88 0-41.6-24-56-78.4-32-120 24-41.6 78.4-56 120-32 27.2 16 44.8 44.8 44.8 76.8 0 30.4-17.6 59.2-44.8 75.2z m0 0" p-id="18587" fill="#FFFFFF"></path></svg>